<mxfile host="app.diagrams.net" modified="2021-10-22T00:49:32.411Z" agent="5.0 (Windows)" etag="n-7gJTf8eKq6b-I6tu-O" version="15.5.6" type="github">
  <diagram id="C5RBs43oDa-KdzZeNtuy" name="Page-1">
    <mxGraphModel dx="790" dy="1179" grid="1" gridSize="10" guides="1" tooltips="1" connect="1" arrows="1" fold="1" page="1" pageScale="1" pageWidth="827" pageHeight="1169" math="0" shadow="0">
      <root>
        <mxCell id="WIyWlLk6GJQsqaUBKTNV-0" />
        <mxCell id="WIyWlLk6GJQsqaUBKTNV-1" parent="WIyWlLk6GJQsqaUBKTNV-0" />
        <mxCell id="paI8Il_EuwSy5qUbTORu-23" style="edgeStyle=orthogonalEdgeStyle;rounded=0;orthogonalLoop=1;jettySize=auto;html=1;exitX=0.5;exitY=0;exitDx=0;exitDy=0;entryX=0.509;entryY=1;entryDx=0;entryDy=0;entryPerimeter=0;" edge="1" parent="WIyWlLk6GJQsqaUBKTNV-1" source="89V0pPBTU7u06rMjEI4J-0" target="89V0pPBTU7u06rMjEI4J-38">
          <mxGeometry relative="1" as="geometry" />
        </mxCell>
        <mxCell id="89V0pPBTU7u06rMjEI4J-0" value="Gameboard" style="swimlane;fontStyle=1;align=center;verticalAlign=top;childLayout=stackLayout;horizontal=1;startSize=26;horizontalStack=0;resizeParent=1;resizeParentMax=0;resizeLast=0;collapsible=1;marginBottom=0;" parent="WIyWlLk6GJQsqaUBKTNV-1" vertex="1">
          <mxGeometry x="145" y="585" width="250" height="110" as="geometry" />
        </mxCell>
        <mxCell id="89V0pPBTU7u06rMjEI4J-1" value="- squares: ArrayList&lt;Square&gt;" style="text;strokeColor=none;fillColor=none;align=left;verticalAlign=top;spacingLeft=4;spacingRight=4;overflow=hidden;rotatable=0;points=[[0,0.5],[1,0.5]];portConstraint=eastwest;" parent="89V0pPBTU7u06rMjEI4J-0" vertex="1">
          <mxGeometry y="26" width="250" height="26" as="geometry" />
        </mxCell>
        <mxCell id="89V0pPBTU7u06rMjEI4J-2" value="" style="line;strokeWidth=1;fillColor=none;align=left;verticalAlign=middle;spacingTop=-1;spacingLeft=3;spacingRight=3;rotatable=0;labelPosition=right;points=[];portConstraint=eastwest;" parent="89V0pPBTU7u06rMjEI4J-0" vertex="1">
          <mxGeometry y="52" width="250" height="8" as="geometry" />
        </mxCell>
        <mxCell id="89V0pPBTU7u06rMjEI4J-3" value="+ Gameboard(squares: ArrayList&lt;Square&gt;)&#xa;+ addSquare(newSquare: Square): void" style="text;strokeColor=none;fillColor=none;align=left;verticalAlign=top;spacingLeft=4;spacingRight=4;overflow=hidden;rotatable=0;points=[[0,0.5],[1,0.5]];portConstraint=eastwest;" parent="89V0pPBTU7u06rMjEI4J-0" vertex="1">
          <mxGeometry y="60" width="250" height="50" as="geometry" />
        </mxCell>
        <mxCell id="paI8Il_EuwSy5qUbTORu-20" style="edgeStyle=orthogonalEdgeStyle;rounded=0;orthogonalLoop=1;jettySize=auto;html=1;entryX=1.005;entryY=1.037;entryDx=0;entryDy=0;entryPerimeter=0;" edge="1" parent="WIyWlLk6GJQsqaUBKTNV-1" source="89V0pPBTU7u06rMjEI4J-4" target="89V0pPBTU7u06rMjEI4J-36">
          <mxGeometry relative="1" as="geometry" />
        </mxCell>
        <mxCell id="89V0pPBTU7u06rMjEI4J-4" value="Die" style="swimlane;fontStyle=1;align=center;verticalAlign=top;childLayout=stackLayout;horizontal=1;startSize=26;horizontalStack=0;resizeParent=1;resizeParentMax=0;resizeLast=0;collapsible=1;marginBottom=0;" parent="WIyWlLk6GJQsqaUBKTNV-1" vertex="1">
          <mxGeometry x="640" y="340" width="160" height="100" as="geometry" />
        </mxCell>
        <mxCell id="89V0pPBTU7u06rMjEI4J-5" value="- numSides: int" style="text;strokeColor=none;fillColor=none;align=left;verticalAlign=top;spacingLeft=4;spacingRight=4;overflow=hidden;rotatable=0;points=[[0,0.5],[1,0.5]];portConstraint=eastwest;" parent="89V0pPBTU7u06rMjEI4J-4" vertex="1">
          <mxGeometry y="26" width="160" height="26" as="geometry" />
        </mxCell>
        <mxCell id="89V0pPBTU7u06rMjEI4J-6" value="" style="line;strokeWidth=1;fillColor=none;align=left;verticalAlign=middle;spacingTop=-1;spacingLeft=3;spacingRight=3;rotatable=0;labelPosition=right;points=[];portConstraint=eastwest;" parent="89V0pPBTU7u06rMjEI4J-4" vertex="1">
          <mxGeometry y="52" width="160" height="8" as="geometry" />
        </mxCell>
        <mxCell id="89V0pPBTU7u06rMjEI4J-7" value="+ Die(numSides: int)&#xa;+ rollDie(): int" style="text;strokeColor=none;fillColor=none;align=left;verticalAlign=top;spacingLeft=4;spacingRight=4;overflow=hidden;rotatable=0;points=[[0,0.5],[1,0.5]];portConstraint=eastwest;" parent="89V0pPBTU7u06rMjEI4J-4" vertex="1">
          <mxGeometry y="60" width="160" height="40" as="geometry" />
        </mxCell>
        <mxCell id="paI8Il_EuwSy5qUbTORu-21" style="edgeStyle=orthogonalEdgeStyle;rounded=0;orthogonalLoop=1;jettySize=auto;html=1;exitX=0.5;exitY=0;exitDx=0;exitDy=0;entryX=1;entryY=0.75;entryDx=0;entryDy=0;" edge="1" parent="WIyWlLk6GJQsqaUBKTNV-1" source="89V0pPBTU7u06rMjEI4J-8" target="89V0pPBTU7u06rMjEI4J-35">
          <mxGeometry relative="1" as="geometry" />
        </mxCell>
        <mxCell id="89V0pPBTU7u06rMjEI4J-8" value="Player" style="swimlane;fontStyle=1;align=center;verticalAlign=top;childLayout=stackLayout;horizontal=1;startSize=26;horizontalStack=0;resizeParent=1;resizeParentMax=0;resizeLast=0;collapsible=1;marginBottom=0;" parent="WIyWlLk6GJQsqaUBKTNV-1" vertex="1">
          <mxGeometry x="415" y="585" width="260" height="190" as="geometry" />
        </mxCell>
        <mxCell id="89V0pPBTU7u06rMjEI4J-9" value="- money: int&#xa;- name: String&#xa;- properties: ArrayList&lt;Property&gt;&#xa;" style="text;strokeColor=none;fillColor=none;align=left;verticalAlign=top;spacingLeft=4;spacingRight=4;overflow=hidden;rotatable=0;points=[[0,0.5],[1,0.5]];portConstraint=eastwest;" parent="89V0pPBTU7u06rMjEI4J-8" vertex="1">
          <mxGeometry y="26" width="260" height="54" as="geometry" />
        </mxCell>
        <mxCell id="89V0pPBTU7u06rMjEI4J-10" value="" style="line;strokeWidth=1;fillColor=none;align=left;verticalAlign=middle;spacingTop=-1;spacingLeft=3;spacingRight=3;rotatable=0;labelPosition=right;points=[];portConstraint=eastwest;" parent="89V0pPBTU7u06rMjEI4J-8" vertex="1">
          <mxGeometry y="80" width="260" height="8" as="geometry" />
        </mxCell>
        <mxCell id="89V0pPBTU7u06rMjEI4J-11" value="+ Player(name: String, money: int)&#xa;+ getMoney(): int&#xa;+ getProperties(): ArrayList&lt;Property&gt;&#xa;+ getPiece(): String&#xa;+ removeMoney(money: int): void&#xa;+ addMoney(money: int): void" style="text;strokeColor=none;fillColor=none;align=left;verticalAlign=top;spacingLeft=4;spacingRight=4;overflow=hidden;rotatable=0;points=[[0,0.5],[1,0.5]];portConstraint=eastwest;" parent="89V0pPBTU7u06rMjEI4J-8" vertex="1">
          <mxGeometry y="88" width="260" height="102" as="geometry" />
        </mxCell>
        <mxCell id="paI8Il_EuwSy5qUbTORu-4" style="edgeStyle=orthogonalEdgeStyle;rounded=0;orthogonalLoop=1;jettySize=auto;html=1;exitX=0.5;exitY=0;exitDx=0;exitDy=0;entryX=0.5;entryY=1;entryDx=0;entryDy=0;entryPerimeter=0;" edge="1" parent="WIyWlLk6GJQsqaUBKTNV-1" source="89V0pPBTU7u06rMjEI4J-24" target="89V0pPBTU7u06rMjEI4J-52">
          <mxGeometry relative="1" as="geometry">
            <mxPoint x="270.0582524271844" y="1015" as="targetPoint" />
          </mxGeometry>
        </mxCell>
        <mxCell id="89V0pPBTU7u06rMjEI4J-24" value="Street" style="swimlane;fontStyle=1;align=center;verticalAlign=top;childLayout=stackLayout;horizontal=1;startSize=26;horizontalStack=0;resizeParent=1;resizeParentMax=0;resizeLast=0;collapsible=1;marginBottom=0;" parent="WIyWlLk6GJQsqaUBKTNV-1" vertex="1">
          <mxGeometry x="140" y="1055" width="260" height="100" as="geometry" />
        </mxCell>
        <mxCell id="89V0pPBTU7u06rMjEI4J-25" value="- colour: String" style="text;strokeColor=none;fillColor=none;align=left;verticalAlign=top;spacingLeft=4;spacingRight=4;overflow=hidden;rotatable=0;points=[[0,0.5],[1,0.5]];portConstraint=eastwest;" parent="89V0pPBTU7u06rMjEI4J-24" vertex="1">
          <mxGeometry y="26" width="260" height="24" as="geometry" />
        </mxCell>
        <mxCell id="89V0pPBTU7u06rMjEI4J-26" value="" style="line;strokeWidth=1;fillColor=none;align=left;verticalAlign=middle;spacingTop=-1;spacingLeft=3;spacingRight=3;rotatable=0;labelPosition=right;points=[];portConstraint=eastwest;" parent="89V0pPBTU7u06rMjEI4J-24" vertex="1">
          <mxGeometry y="50" width="260" height="8" as="geometry" />
        </mxCell>
        <mxCell id="89V0pPBTU7u06rMjEI4J-27" value="+ Street(name: String, colour: String, cost: int)&#xa;+ calculateRent(): int" style="text;strokeColor=none;fillColor=none;align=left;verticalAlign=top;spacingLeft=4;spacingRight=4;overflow=hidden;rotatable=0;points=[[0,0.5],[1,0.5]];portConstraint=eastwest;" parent="89V0pPBTU7u06rMjEI4J-24" vertex="1">
          <mxGeometry y="58" width="260" height="42" as="geometry" />
        </mxCell>
        <mxCell id="paI8Il_EuwSy5qUbTORu-22" style="edgeStyle=orthogonalEdgeStyle;rounded=0;orthogonalLoop=1;jettySize=auto;html=1;exitX=0.5;exitY=0;exitDx=0;exitDy=0;entryX=0.5;entryY=1;entryDx=0;entryDy=0;" edge="1" parent="WIyWlLk6GJQsqaUBKTNV-1" source="89V0pPBTU7u06rMjEI4J-35" target="paI8Il_EuwSy5qUbTORu-16">
          <mxGeometry relative="1" as="geometry" />
        </mxCell>
        <mxCell id="89V0pPBTU7u06rMjEI4J-35" value="GameLogic" style="swimlane;fontStyle=1;align=center;verticalAlign=top;childLayout=stackLayout;horizontal=1;startSize=26;horizontalStack=0;resizeParent=1;resizeParentMax=0;resizeLast=0;collapsible=1;marginBottom=0;" parent="WIyWlLk6GJQsqaUBKTNV-1" vertex="1">
          <mxGeometry x="140" y="310" width="350" height="130" as="geometry" />
        </mxCell>
        <mxCell id="89V0pPBTU7u06rMjEI4J-36" value="- players: ArrayList&lt;Player&gt;&#xa;- gameboard: Gameboard&#xa;" style="text;strokeColor=none;fillColor=none;align=left;verticalAlign=top;spacingLeft=4;spacingRight=4;overflow=hidden;rotatable=0;points=[[0,0.5],[1,0.5]];portConstraint=eastwest;" parent="89V0pPBTU7u06rMjEI4J-35" vertex="1">
          <mxGeometry y="26" width="350" height="54" as="geometry" />
        </mxCell>
        <mxCell id="89V0pPBTU7u06rMjEI4J-37" value="" style="line;strokeWidth=1;fillColor=none;align=left;verticalAlign=middle;spacingTop=-1;spacingLeft=3;spacingRight=3;rotatable=0;labelPosition=right;points=[];portConstraint=eastwest;" parent="89V0pPBTU7u06rMjEI4J-35" vertex="1">
          <mxGeometry y="80" width="350" height="8" as="geometry" />
        </mxCell>
        <mxCell id="89V0pPBTU7u06rMjEI4J-38" value="&lt;div&gt;+ GameLogic(gameboard: Gameboard)&lt;/div&gt;&lt;u&gt;+ main(args: String[]): void&lt;/u&gt;" style="text;strokeColor=none;fillColor=none;align=left;verticalAlign=top;spacingLeft=4;spacingRight=4;overflow=hidden;rotatable=0;points=[[0,0.5],[1,0.5]];portConstraint=eastwest;fontStyle=0;html=1;" parent="89V0pPBTU7u06rMjEI4J-35" vertex="1">
          <mxGeometry y="88" width="350" height="42" as="geometry" />
        </mxCell>
        <mxCell id="89V0pPBTU7u06rMjEI4J-44" style="edgeStyle=orthogonalEdgeStyle;rounded=0;orthogonalLoop=1;jettySize=auto;html=1;exitX=0.5;exitY=0;exitDx=0;exitDy=0;entryX=0.5;entryY=1;entryDx=0;entryDy=0;" parent="WIyWlLk6GJQsqaUBKTNV-1" source="paI8Il_EuwSy5qUbTORu-11" target="89V0pPBTU7u06rMjEI4J-0" edge="1">
          <mxGeometry relative="1" as="geometry">
            <mxPoint x="270" y="735" as="sourcePoint" />
          </mxGeometry>
        </mxCell>
        <mxCell id="paI8Il_EuwSy5qUbTORu-15" style="edgeStyle=orthogonalEdgeStyle;rounded=0;orthogonalLoop=1;jettySize=auto;html=1;entryX=0.501;entryY=1.001;entryDx=0;entryDy=0;entryPerimeter=0;" edge="1" parent="WIyWlLk6GJQsqaUBKTNV-1" source="89V0pPBTU7u06rMjEI4J-49" target="paI8Il_EuwSy5qUbTORu-12">
          <mxGeometry relative="1" as="geometry">
            <mxPoint x="270" y="805" as="targetPoint" />
          </mxGeometry>
        </mxCell>
        <mxCell id="89V0pPBTU7u06rMjEI4J-49" value="Property" style="swimlane;fontStyle=3;align=center;verticalAlign=top;childLayout=stackLayout;horizontal=1;startSize=26;horizontalStack=0;resizeParent=1;resizeParentMax=0;resizeLast=0;collapsible=1;marginBottom=0;" parent="WIyWlLk6GJQsqaUBKTNV-1" vertex="1">
          <mxGeometry x="190" y="855" width="160" height="130" as="geometry" />
        </mxCell>
        <mxCell id="89V0pPBTU7u06rMjEI4J-50" value="- name: String&#xa;- owner: Player&#xa;- cost: int&#xa;" style="text;strokeColor=none;fillColor=none;align=left;verticalAlign=top;spacingLeft=4;spacingRight=4;overflow=hidden;rotatable=0;points=[[0,0.5],[1,0.5]];portConstraint=eastwest;" parent="89V0pPBTU7u06rMjEI4J-49" vertex="1">
          <mxGeometry y="26" width="160" height="54" as="geometry" />
        </mxCell>
        <mxCell id="89V0pPBTU7u06rMjEI4J-51" value="" style="line;strokeWidth=1;fillColor=none;align=left;verticalAlign=middle;spacingTop=-1;spacingLeft=3;spacingRight=3;rotatable=0;labelPosition=right;points=[];portConstraint=eastwest;" parent="89V0pPBTU7u06rMjEI4J-49" vertex="1">
          <mxGeometry y="80" width="160" height="8" as="geometry" />
        </mxCell>
        <mxCell id="89V0pPBTU7u06rMjEI4J-52" value="+ getOwner(): Player&#xa;+ getCost(): int&#xa;" style="text;strokeColor=none;fillColor=none;align=left;verticalAlign=top;spacingLeft=4;spacingRight=4;overflow=hidden;rotatable=0;points=[[0,0.5],[1,0.5]];portConstraint=eastwest;" parent="89V0pPBTU7u06rMjEI4J-49" vertex="1">
          <mxGeometry y="88" width="160" height="42" as="geometry" />
        </mxCell>
        <mxCell id="paI8Il_EuwSy5qUbTORu-11" value="Square&#xa;&lt;&lt;interface&gt;&gt;" style="swimlane;fontStyle=1;childLayout=stackLayout;horizontal=1;startSize=36;fillColor=none;horizontalStack=0;resizeParent=1;resizeParentMax=0;resizeLast=0;collapsible=1;marginBottom=0;" vertex="1" parent="WIyWlLk6GJQsqaUBKTNV-1">
          <mxGeometry x="200" y="735" width="140" height="62" as="geometry" />
        </mxCell>
        <mxCell id="paI8Il_EuwSy5qUbTORu-12" value="+ getName(): String" style="text;strokeColor=none;fillColor=none;align=left;verticalAlign=top;spacingLeft=4;spacingRight=4;overflow=hidden;rotatable=0;points=[[0,0.5],[1,0.5]];portConstraint=eastwest;" vertex="1" parent="paI8Il_EuwSy5qUbTORu-11">
          <mxGeometry y="36" width="140" height="26" as="geometry" />
        </mxCell>
        <mxCell id="paI8Il_EuwSy5qUbTORu-16" value="GameUI" style="swimlane;fontStyle=1;align=center;verticalAlign=top;childLayout=stackLayout;horizontal=1;startSize=26;horizontalStack=0;resizeParent=1;resizeParentMax=0;resizeLast=0;collapsible=1;marginBottom=0;" vertex="1" parent="WIyWlLk6GJQsqaUBKTNV-1">
          <mxGeometry x="130" y="60" width="370" height="160" as="geometry" />
        </mxCell>
        <mxCell id="paI8Il_EuwSy5qUbTORu-17" value="+ field: type" style="text;strokeColor=none;fillColor=none;align=left;verticalAlign=top;spacingLeft=4;spacingRight=4;overflow=hidden;rotatable=0;points=[[0,0.5],[1,0.5]];portConstraint=eastwest;" vertex="1" parent="paI8Il_EuwSy5qUbTORu-16">
          <mxGeometry y="26" width="370" height="26" as="geometry" />
        </mxCell>
        <mxCell id="paI8Il_EuwSy5qUbTORu-18" value="" style="line;strokeWidth=1;fillColor=none;align=left;verticalAlign=middle;spacingTop=-1;spacingLeft=3;spacingRight=3;rotatable=0;labelPosition=right;points=[];portConstraint=eastwest;" vertex="1" parent="paI8Il_EuwSy5qUbTORu-16">
          <mxGeometry y="52" width="370" height="8" as="geometry" />
        </mxCell>
        <mxCell id="paI8Il_EuwSy5qUbTORu-19" value="+ GameUI(): void&#xa;+ displayPlayerInput(): void&#xa;+ displayBoard(): void&#xa;+ displayCommands(player: Player, hasRolled: boolean): void&#xa;+ displayDiceRoll(player: String, roll: int): void&#xa;+ displayPayment(payer: String, payee: String, payment: int): void&#xa;&#xa;&#xa;1&#xa;&#xa;" style="text;strokeColor=none;fillColor=none;align=left;verticalAlign=top;spacingLeft=4;spacingRight=4;overflow=hidden;rotatable=0;points=[[0,0.5],[1,0.5]];portConstraint=eastwest;" vertex="1" parent="paI8Il_EuwSy5qUbTORu-16">
          <mxGeometry y="60" width="370" height="100" as="geometry" />
        </mxCell>
      </root>
    </mxGraphModel>
  </diagram>
</mxfile>
